<svg width="22" height="15" viewBox="0 0 22 15" fill="none" xmlns="http://www.w3.org/2000/svg">
<path fill-rule="evenodd" clip-rule="evenodd" d="M19.9718 0.916014C20.5989 0.913244 21.1568 1.17083 21.509 1.57151L11.3659 8.99949L1.24875 1.79511C1.58384 1.31604 2.19061 0.994584 2.88485 0.991517L19.9718 0.916014ZM1.01927 13.2903L0.974274 3.10643L8.23357 8.27577L1.03511 13.4983C1.02497 13.4302 1.01958 13.3608 1.01927 13.2903ZM1.68662 14.542C2.02468 14.7936 2.46525 14.9448 2.94649 14.9427L20.0335 14.8672C20.4471 14.8653 20.8297 14.7505 21.1422 14.5566L13.4282 9.01152L12.0498 10.0209C11.66 10.3064 11.0903 10.31 10.6964 10.0296L9.28837 9.02689L1.68662 14.542ZM14.4705 8.24821L21.8952 13.5853C21.929 13.4609 21.9466 13.3312 21.946 13.1978L21.9001 2.80738L14.4705 8.24821Z" fill="#D8D8D9"/>
</svg>
