<?xml version="1.0" encoding="UTF-8"?>
<svg id="Layer_1" data-name="Layer 1" xmlns="http://www.w3.org/2000/svg" viewBox="0 0 150 38">
  <defs>
    <style>
      .cls-1 {
        fill: #f5f6f6;
      }
    </style>
  </defs>
  <polygon class="cls-1" points="133.06 .43 115.34 31.74 111.2 24.36 124.74 .43 133.06 .43"/>
  <polygon class="cls-1" points="141.74 4.25 122.87 37.57 118.58 37.57 116.45 33.75 135.31 .43 139.6 .43 141.74 4.25"/>
  <polygon class="cls-1" points="146.99 13.64 133.44 37.57 125.13 37.57 142.85 6.26 146.99 13.64"/>
  <polygon class="cls-1" points="122.57 .43 110.12 22.41 108.18 18.94 118.67 .43 122.57 .43"/>
  <polygon class="cls-1" points="135.62 37.57 148.06 15.59 150 19.06 139.52 37.57 135.62 37.57"/>
  <path class="cls-1" d="M3.71.43h4.77l3.23,12.42L18.82.43h5.31l-3.71,21.11h-4.25l2.38-13.45-6.12,10.64h-3.14l-2.75-10.64-2.38,13.45H0L3.71.43Z"/>
  <path class="cls-1" d="M28.73.43h13.96l-.7,3.98h-9.62l-.76,4.38h7.78l-.7,3.92h-7.78l-.87,4.86h9.62l-.7,3.98h-13.96L28.72.43h.01Z"/>
  <path class="cls-1" d="M49.75,4.35h-5.58l.67-3.92h15.5l-.67,3.92h-5.58l-3.04,17.19h-4.35l3.04-17.19Z"/>
  <path class="cls-1" d="M77.77,4.65l-.9,5.09c-.42,2.38-1.6,3.74-3.59,4.1l2.17,7.69h-4.46l-2.11-7.45h-3.53l-1.32,7.45h-4.35L63.4.42h10.98c2.81,0,3.89,1.35,3.4,4.22h-.01ZM72.91,4.35h-5.85l-1.06,5.88h5.85c.42,0,.6-.15.7-.6l.81-4.67c.09-.45-.03-.6-.45-.6Z"/>
  <path class="cls-1" d="M82.62.43h4.35l-3.71,21.11h-4.35L82.62.43Z"/>
  <path class="cls-1" d="M94.31,10.8L89.85.42h4.71l2.81,6.82,5.22-6.82h4.86l-8.23,10.37,4.71,10.73h-4.71l-2.95-7.11-5.42,7.11h-4.86l8.35-10.73h-.02Z"/>
  <path class="cls-1" d="M0,26.49h5.51c1.51,0,2.21.71,2.21,2.21v1.52c0,.87-.38,1.39-1.03,1.68.78.27,1.16.82,1.16,1.69v1.75c0,1.51-.71,2.21-2.21,2.21H.01v-11.07H0ZM5.33,31.22c.64,0,.87-.24.87-.85v-1.63c0-.64-.24-.87-.87-.87H1.52v3.35h3.81ZM5.45,36.19c.64,0,.87-.24.87-.87v-1.89c0-.64-.24-.87-.87-.87H1.52v3.62h3.94Z"/>
  <path class="cls-1" d="M9.95,35.35v-6.64c0-1.51.71-2.21,2.21-2.21h3.69c1.51,0,2.21.71,2.21,2.21v6.64c0,1.51-.71,2.21-2.21,2.21h-3.69c-1.51,0-2.21-.71-2.21-2.21ZM15.68,36.17c.64,0,.87-.24.87-.87v-6.55c0-.64-.24-.87-.87-.87h-3.35c-.62,0-.85.24-.85.87v6.55c0,.64.24.87.85.87h3.35Z"/>
  <path class="cls-1" d="M20.63,26.49h1.52v9.69h5.25v1.39h-6.78v-11.07h.01Z"/>
  <path class="cls-1" d="M30.12,27.87h-3.26v-1.37h8.06v1.37h-3.28v9.7h-1.52v-9.7Z"/>
  <path class="cls-1" d="M36.26,35.35v-1.22h1.49v1.23c0,.62.24.85.87.85h3.07c.64,0,.87-.24.87-.85v-1.33c0-.68-.29-.88-.95-1.05l-3.03-.68c-1.3-.29-2.28-.68-2.28-2.27v-1.34c0-1.51.71-2.21,2.21-2.21h3.18c1.51,0,2.21.71,2.21,2.21v1.09h-1.51v-1.11c0-.62-.24-.85-.85-.85h-2.88c-.62,0-.85.24-.85.85v1.16c0,.68.29.88.93,1.03l3.05.7c1.28.29,2.28.68,2.28,2.27v1.52c0,1.51-.71,2.21-2.21,2.21h-3.38c-1.51,0-2.21-.71-2.21-2.21h0Z"/>
  <path class="cls-1" d="M50.04,35.35v-6.64c0-1.51.71-2.21,2.21-2.21h3.41c1.51,0,2.21.71,2.21,2.21v1.4h-1.52v-1.36c0-.64-.24-.87-.87-.87h-3.09c-.62,0-.85.24-.85.87v6.55c0,.64.24.87.85.87h3.09c.64,0,.87-.24.87-.87v-1.36h1.52v1.4c0,1.46-.71,2.21-2.21,2.21h-3.41c-1.51,0-2.21-.76-2.21-2.21h0Z"/>
  <path class="cls-1" d="M60.26,26.49h7.17v1.39h-5.65v3.32h4.7v1.39h-4.7v3.58h5.65v1.39h-7.17v-11.07h0Z"/>
  <path class="cls-1" d="M69.67,26.49h1.64l5.27,8.62v-8.62h1.46v11.07h-1.52l-5.39-8.8v8.8h-1.46s0-11.07,0-11.07Z"/>
  <path class="cls-1" d="M83.21,27.87h-3.26v-1.37h8.06v1.37h-3.28v9.7h-1.52v-9.7Z"/>
  <path class="cls-1" d="M89.91,26.49h7.17v1.39h-5.65v3.32h4.7v1.39h-4.7v3.58h5.65v1.39h-7.17v-11.07h0Z"/>
  <path class="cls-1" d="M107.44,37.57h-1.66l-2.27-4.35h-2.68v4.35h-1.52v-11.07h5.56c1.51,0,2.21.71,2.21,2.21v2.28c0,1.39-.62,2.1-1.92,2.2l2.27,4.38ZM104.7,31.83c.64,0,.87-.24.87-.85v-2.25c0-.64-.24-.87-.87-.87h-3.86v3.97h3.86Z"/>
</svg>