<svg width="17" height="17" viewBox="0 0 17 17" fill="none" xmlns="http://www.w3.org/2000/svg">
<path d="M0.000722404 8.24465C0.000722404 3.5061 3.71223 0 8.50036 0C13.2885 0 17 3.5061 17 8.24465C17 12.9832 13.2885 16.4893 8.50036 16.4893C7.64331 16.4893 6.8146 16.376 6.04255 16.1635C5.89186 16.1229 5.7318 16.1354 5.58923 16.1989L3.89639 16.9426C3.79434 16.988 3.68267 17.0076 3.57126 16.9996C3.45984 16.9916 3.35211 16.9563 3.25758 16.8968C3.16306 16.8373 3.08465 16.7554 3.02929 16.6584C2.97393 16.5614 2.94333 16.4522 2.94018 16.3406L2.8906 14.8248C2.88676 14.7335 2.86473 14.6438 2.82581 14.5611C2.78689 14.4784 2.73186 14.4043 2.66394 14.3431C1.81183 13.5745 1.1335 12.6329 0.674241 11.5813C0.214983 10.5296 -0.0146335 9.3921 0.000722404 8.24465ZM5.8938 6.69346L3.40058 10.66C3.15267 11.0354 3.62723 11.4674 3.98139 11.1912L6.66586 9.15836C6.85001 9.0167 7.09084 9.0167 7.28208 9.15836L9.26533 10.6458C9.8603 11.092 10.7103 10.9291 11.1069 10.3058L13.6001 6.33931C13.8481 5.96391 13.3735 5.53893 13.0193 5.80809L10.3349 7.84092C10.1578 7.98258 9.90988 7.98258 9.72572 7.84092L7.74248 6.35348C7.60144 6.24693 7.43979 6.17088 7.26779 6.13014C7.09579 6.08941 6.9172 6.08488 6.74336 6.11685C6.56952 6.14882 6.40422 6.21659 6.25797 6.31586C6.11172 6.41512 5.98771 6.54371 5.8938 6.69346Z" fill="#D8D8D9"/>
</svg>
