<svg width="20" height="20" viewBox="0 0 20 20" fill="none" xmlns="http://www.w3.org/2000/svg">
<path d="M19.5727 8.56364L17.2727 8.4C17.0818 7.52727 16.7364 6.70909 16.2727 5.98182L17.7909 4.24545C17.9545 4.08182 17.9545 3.80909 17.7909 3.63636L16.3636 2.20909C16.2 2.04545 15.9273 2.04545 15.7545 2.20909L14.0182 3.72727C13.2909 3.26364 12.4727 2.91818 11.6 2.72727L11.4364 0.427272C11.4364 0.190909 11.2455 0 11.0091 0H8.99091C8.75455 0 8.56364 0.190909 8.56364 0.427272L8.4 2.72727C7.52727 2.91818 6.70909 3.26364 5.98182 3.72727L4.24546 2.20909C4.08182 2.04545 3.80909 2.04545 3.63636 2.20909L2.20909 3.63636C2.04545 3.8 2.04545 4.07273 2.20909 4.24545L3.72727 5.98182C3.26364 6.70909 2.91818 7.52727 2.72727 8.4L0.427272 8.56364C0.190909 8.56364 0 8.75455 0 8.99091V11.0091C0 11.2455 0.190909 11.4364 0.427272 11.4364L2.72727 11.6C2.91818 12.4727 3.26364 13.2909 3.72727 14.0182L2.20909 15.7545C2.04545 15.9182 2.04545 16.1909 2.20909 16.3636L3.63636 17.7909C3.8 17.9545 4.07273 17.9545 4.24546 17.7909L5.98182 16.2727C6.70909 16.7364 7.52727 17.0818 8.4 17.2727L8.56364 19.5727C8.56364 19.8091 8.75455 20 8.99091 20H11.0091C11.2455 20 11.4364 19.8091 11.4364 19.5727L11.6 17.2727C12.4727 17.0818 13.2909 16.7364 14.0182 16.2727L15.7545 17.7909C15.9182 17.9545 16.1909 17.9545 16.3636 17.7909L17.7909 16.3636C17.9545 16.2 17.9545 15.9273 17.7909 15.7545L16.2727 14.0182C16.7364 13.2909 17.0818 12.4727 17.2727 11.6L19.5727 11.4364C19.8091 11.4364 20 11.2455 20 11.0091V8.99091C20 8.75455 19.8091 8.56364 19.5727 8.56364ZM10 14.1091C7.72727 14.1091 5.89091 12.2727 5.89091 10C5.89091 7.72727 7.72727 5.89091 10 5.89091C12.2727 5.89091 14.1091 7.72727 14.1091 10C14.1091 12.2636 12.2727 14.1091 10 14.1091Z" fill="#112D51"/>
</svg>
